<svg version="1.1" id="Layer_1" xmlns="http://www.w3.org/2000/svg" xmlns:xlink="http://www.w3.org/1999/xlink" x="0px" y="0px"
	 width="100%" viewBox="0 0 256 256" enable-background="new 0 0 256 256" xml:space="preserve">
<path fill="#F2F3F3" opacity="1.000000" stroke="none" 
	d="
M194.746323,234.752121 
	C179.767151,244.098969 163.848389,249.638062 146.703568,252.061966 
	C120.427055,255.776825 95.322342,252.031754 71.833870,239.882080 
	C40.840794,223.850571 20.121655,198.642532 9.377093,165.571228 
	C4.549560,150.712280 2.831508,135.125397 4.100019,119.516396 
	C6.004283,96.084450 13.443220,74.276672 27.419867,55.355518 
	C46.962135,28.899790 73.005379,11.971926 105.647018,6.013436 
	C139.132187,-0.099033 170.282227,5.848222 198.613113,24.986313 
	C226.283920,43.678509 244.034790,69.372299 250.811493,102.074646 
	C253.019058,112.727646 254.309540,123.910851 253.739151,134.731354 
	C252.385605,160.409286 244.167557,183.867126 228.177521,204.501373 
	C218.841202,216.549377 207.979950,226.606308 194.746323,234.752121 
M242.299393,113.310364 
	C240.833511,106.874710 239.367630,100.439064 237.959793,93.243286 
	C233.978867,84.827408 229.997955,76.411537 225.807724,67.336830 
	C218.959076,56.283562 210.326385,46.846035 199.745087,38.296608 
	C198.661942,37.528313 197.579529,36.758995 196.495560,35.991871 
	C185.631561,28.303526 174.135315,21.923109 160.555084,18.273680 
	C144.056107,13.690657 127.310143,12.526525 110.427582,15.351297 
	C89.623215,18.832260 70.971786,27.322475 54.915485,41.040867 
	C42.583916,51.576874 32.338017,63.850597 25.292290,79.333565 
	C19.568020,92.308258 15.036735,105.584267 14.636753,120.742325 
	C13.174457,135.272232 15.086844,149.379990 19.979918,163.883896 
	C23.756821,176.419174 29.762302,187.785965 38.185242,198.650833 
	C46.442223,206.471085 54.699203,214.291321 63.282150,222.708191 
	C73.522888,227.739822 83.763626,232.771454 94.773659,237.986389 
	C112.237198,243.774353 130.193130,244.713242 148.113037,241.682236 
	C174.172043,237.274536 196.309097,225.007690 214.074844,205.336212 
	C221.943146,196.623901 228.757675,187.103928 233.551804,175.541611 
	C236.420547,165.134552 239.289291,154.727493 242.691803,143.636169 
	C242.622772,133.763565 242.553741,123.890968 242.299393,113.310364 
z"/>
<path fill="#27D0E7" opacity="1.000000" stroke="none" 
	d="
M161.038620,18.853968 
	C174.135315,21.923109 185.631561,28.303526 196.495560,35.991871 
	C197.579529,36.758995 198.661942,37.528313 199.741028,38.912521 
	C196.294830,41.292717 192.915359,43.194824 189.398163,44.794018 
	C180.735641,48.732670 171.927475,52.361496 163.361664,56.495697 
	C160.917694,57.675251 159.103256,60.159210 156.620453,62.212379 
	C150.029816,62.798870 143.818863,63.218006 137.607910,63.637142 
	C137.733002,63.215668 137.858078,62.794197 137.983170,62.372723 
	C135.715393,61.580685 133.434341,60.079067 131.182175,60.121197 
	C122.121201,60.290703 113.069153,60.937546 103.731636,61.343861 
	C102.966423,61.520332 102.483383,61.760960 101.614883,61.987465 
	C89.461700,65.072670 88.597183,66.118507 87.962868,77.654327 
	C87.891060,78.960129 87.858253,80.530922 87.144493,81.480690 
	C85.884033,83.157936 84.133591,85.675446 82.552376,85.701973 
	C73.949989,85.846214 69.149940,89.853706 67.866325,98.277657 
	C67.821960,98.568840 67.519379,98.820671 66.910797,99.067001 
	C64.865860,99.268875 63.096298,99.149879 61.655273,99.781013 
	C55.923561,102.291367 50.359295,105.186676 44.612663,107.659752 
	C34.796326,111.884224 24.889441,115.898277 15.020590,120.000717 
	C15.036735,105.584267 19.568020,92.308258 25.980049,79.151535 
	C27.772078,78.649292 28.927019,78.445808 29.973124,77.991638 
	C50.631535,69.022621 71.283737,60.039227 91.923943,51.028378 
	C113.933769,41.419590 135.941803,31.806297 157.901169,22.083275 
	C159.174042,21.519676 160.003036,19.953541 161.038620,18.853968 
z"/>
<path fill="#19B7DA" opacity="1.000000" stroke="none" 
	d="
M242.158051,144.320435 
	C239.289291,154.727493 236.420547,165.134552 233.039490,175.507019 
	C228.993896,176.610565 225.370193,177.527664 221.944305,178.928497 
	C211.837830,183.060974 201.758972,187.269714 191.763824,191.663605 
	C179.656677,196.985916 167.684464,202.614914 155.581787,207.947693 
	C145.910172,212.209290 136.114166,216.187729 126.404442,220.364136 
	C118.981644,223.556870 111.532295,226.705063 104.242249,230.182281 
	C100.393410,232.018112 95.202080,232.313080 94.004364,237.803070 
	C83.763626,232.771454 73.522888,227.739822 63.169476,222.050415 
	C64.227890,220.330261 65.233681,218.925751 66.599281,218.266006 
	C71.927628,215.691803 77.310013,213.207672 82.782715,210.958710 
	C93.144371,206.700668 103.606438,202.686752 113.961800,198.413895 
	C115.491028,197.782867 116.665024,196.290894 118.381821,195.147934 
	C120.767792,195.369919 122.775322,195.641205 125.106140,195.917755 
	C125.955986,195.607651 126.482536,195.292313 127.388580,194.956757 
	C136.894989,192.025803 146.062515,189.231934 155.108902,186.089401 
	C156.618942,185.564865 157.602554,183.524948 158.829407,182.185257 
	C161.429306,180.189209 164.834076,178.819916 168.371048,178.101562 
	C177.309357,176.286194 184.875168,172.646454 189.491943,163.995483 
	C191.141632,163.637650 192.483963,163.448486 193.674240,162.918076 
	C208.102570,156.488373 222.513901,150.020340 236.914001,143.527542 
	C238.891724,142.635788 240.847229,141.135193 242.158051,144.320435 
z"/>
<path fill="#17B3D8" opacity="1.000000" stroke="none" 
	d="
M94.389015,237.894730 
	C95.202080,232.313080 100.393410,232.018112 104.242249,230.182281 
	C111.532295,226.705063 118.981644,223.556870 126.404442,220.364136 
	C136.114166,216.187729 145.910172,212.209290 155.581787,207.947693 
	C167.684464,202.614914 179.656677,196.985916 191.763824,191.663605 
	C201.758972,187.269714 211.837830,183.060974 221.944305,178.928497 
	C225.370193,177.527664 228.993896,176.610565 232.760361,175.729996 
	C228.757675,187.103928 221.943146,196.623901 214.074844,205.336212 
	C196.309097,225.007690 174.172043,237.274536 148.113037,241.682236 
	C130.193130,244.713242 112.237198,243.774353 94.389015,237.894730 
z"/>
<path fill="#29D5E9" opacity="1.000000" stroke="none" 
	d="
M160.796844,18.563824 
	C160.003036,19.953541 159.174042,21.519676 157.901169,22.083275 
	C135.941803,31.806297 113.933769,41.419590 91.923943,51.028378 
	C71.283737,60.039227 50.631535,69.022621 29.973124,77.991638 
	C28.927019,78.445808 27.772078,78.649292 26.277821,78.963806 
	C32.338017,63.850597 42.583916,51.576874 54.915485,41.040867 
	C70.971786,27.322475 89.623215,18.832260 110.427582,15.351297 
	C127.310143,12.526525 144.056107,13.690657 160.796844,18.563824 
z"/>
<path fill="#23C9E3" opacity="1.000000" stroke="none" 
	d="
M14.828671,120.371521 
	C24.889441,115.898277 34.796326,111.884224 44.612663,107.659752 
	C50.359295,105.186676 55.923561,102.291367 61.655273,99.781013 
	C63.096298,99.149879 64.865860,99.268875 66.820511,99.393677 
	C68.109909,102.292816 68.870743,104.934959 70.054535,107.371605 
	C72.994110,113.422218 74.754745,120.328880 69.546928,124.978043 
	C64.537125,129.450439 65.364769,133.559814 66.454460,138.575500 
	C66.767479,140.016327 66.764755,141.525726 66.517891,143.003571 
	C64.414009,143.505066 62.626575,143.837509 60.995888,144.535934 
	C50.888512,148.864914 40.791355,153.219925 30.745621,157.689499 
	C27.066027,159.326645 23.536070,161.300125 19.937851,163.120163 
	C15.086844,149.379990 13.174457,135.272232 14.828671,120.371521 
z"/>
<path fill="#1FC2E0" opacity="1.000000" stroke="none" 
	d="
M19.958885,163.502029 
	C23.536070,161.300125 27.066027,159.326645 30.745621,157.689499 
	C40.791355,153.219925 50.888512,148.864914 60.995888,144.535934 
	C62.626575,143.837509 64.414009,143.505066 66.650536,143.340912 
	C68.232765,144.339645 69.214066,145.332642 70.366966,145.608475 
	C77.975388,147.428864 81.046783,155.098511 80.252937,161.488022 
	C79.525436,167.343491 79.741142,172.606659 84.042305,176.995605 
	C68.420319,184.106049 53.154545,191.073380 37.888771,198.040710 
	C29.762302,187.785965 23.756821,176.419174 19.958885,163.502029 
z"/>
<path fill="#1CBBDC" opacity="1.000000" stroke="none" 
	d="
M38.037003,198.345764 
	C53.154545,191.073380 68.420319,184.106049 84.299316,177.187149 
	C86.128311,178.535324 87.344078,179.835083 88.502243,181.073257 
	C92.759834,179.363464 95.216034,177.142563 93.108330,172.441284 
	C92.671310,171.466492 92.951393,170.170227 93.308098,169.015747 
	C95.789017,168.674500 97.862823,168.339630 100.115707,168.351181 
	C100.643990,170.462280 100.652504,172.390121 101.405144,173.961594 
	C103.838036,179.041336 107.011665,183.812119 109.003883,189.043198 
	C110.729813,193.575104 113.225632,195.732117 118.003372,195.197266 
	C116.665024,196.290894 115.491028,197.782867 113.961800,198.413895 
	C103.606438,202.686752 93.144371,206.700668 82.782715,210.958710 
	C77.310013,213.207672 71.927628,215.691803 66.599281,218.266006 
	C65.233681,218.925751 64.227890,220.330261 63.006493,221.752106 
	C54.699203,214.291321 46.442223,206.471085 38.037003,198.345764 
z"/>
<path fill="#24C9E3" opacity="1.000000" stroke="none" 
	d="
M157.000153,62.045025 
	C159.103256,60.159210 160.917694,57.675251 163.361664,56.495697 
	C171.927475,52.361496 180.735641,48.732670 189.398163,44.794018 
	C192.915359,43.194824 196.294830,41.292717 199.893692,39.212616 
	C210.326385,46.846035 218.959076,56.283562 225.528961,67.674545 
	C211.543671,73.819168 197.773193,79.482208 184.172760,85.527802 
	C180.484467,87.167305 177.309952,89.962570 173.613495,91.903625 
	C173.327362,86.217331 173.327362,80.854774 173.327362,74.983925 
	C163.767746,75.756081 154.002777,76.544830 144.309570,77.327774 
	C143.509125,83.583138 142.776184,89.310890 141.668182,94.832977 
	C141.698029,88.149712 142.102951,81.672127 142.494568,75.407227 
	C148.970322,74.864494 154.089432,74.439667 159.207718,74.005318 
	C164.399170,73.564751 169.589828,73.114769 174.780823,72.668907 
	C174.913910,72.233002 175.047012,71.797096 175.180099,71.361191 
	C169.008972,68.450272 165.073944,61.626751 157.000153,62.045025 
z"/>
<path fill="#21C3E0" opacity="1.000000" stroke="none" 
	d="
M173.899612,92.227364 
	C177.309952,89.962570 180.484467,87.167305 184.172760,85.527802 
	C197.773193,79.482208 211.543671,73.819168 225.633606,68.003960 
	C229.997955,76.411537 233.978867,84.827408 237.550735,93.631027 
	C233.867233,95.119888 230.502075,96.008606 227.334946,97.361053 
	C216.899002,101.817520 206.534744,106.441841 196.026917,110.616974 
	C195.364532,107.883003 194.818161,105.533775 194.212082,102.927818 
	C186.179764,104.215698 178.519211,105.441048 170.859680,106.672852 
	C162.425369,108.029266 154.131363,108.433304 147.002136,102.996223 
	C148.941498,101.789589 150.541794,100.740311 152.446075,99.851784 
	C154.943314,101.906761 157.239227,105.515060 159.311615,105.390945 
	C167.213287,104.917793 175.042892,103.241280 183.937592,101.852188 
	C178.455582,99.666443 174.988205,97.101280 173.899612,92.227364 
z"/>
<path fill="#1CBBDC" opacity="1.000000" stroke="none" 
	d="
M242.424927,143.978302 
	C240.847229,141.135193 238.891724,142.635788 236.914001,143.527542 
	C222.513901,150.020340 208.102570,156.488373 193.674240,162.918076 
	C192.483963,163.448486 191.141632,163.637650 189.582581,163.661346 
	C189.914062,162.179962 190.532913,161.022568 191.710556,158.820068 
	C181.664581,161.582733 172.972656,164.064682 164.217163,166.297409 
	C162.617783,166.705261 160.759445,166.097595 159.146942,165.741241 
	C159.545914,165.334412 159.818619,165.145035 160.479950,164.950104 
	C170.129608,162.343552 179.390625,159.742538 187.576767,157.443405 
	C185.916641,151.342407 184.372650,145.668182 183.228516,139.989029 
	C190.904175,136.993118 198.188080,134.021637 205.453888,131.006516 
	C216.110413,126.584335 226.781235,122.194252 237.377533,117.631546 
	C239.251129,116.824783 240.790817,115.242508 242.484711,114.018364 
	C242.553741,123.890968 242.622772,133.763565 242.424927,143.978302 
z"/>
<path fill="#1FBFDE" opacity="1.000000" stroke="none" 
	d="
M242.392044,113.664368 
	C240.790817,115.242508 239.251129,116.824783 237.377533,117.631546 
	C226.781235,122.194252 216.110413,126.584335 205.453888,131.006516 
	C198.188080,134.021637 190.904175,136.993118 183.210083,139.588348 
	C184.157578,135.803574 185.523346,132.414566 186.924362,128.938095 
	C179.975342,130.487183 172.594101,132.013641 165.298523,133.875717 
	C164.077988,134.187241 162.722137,135.787766 162.295914,137.078918 
	C160.404053,142.810059 157.048691,147.295929 151.656158,150.275726 
	C150.579880,143.589371 152.994522,138.368744 158.559479,135.445282 
	C163.732849,132.727539 169.362335,130.681580 175.004120,129.100235 
	C182.550140,126.985138 190.301666,125.603287 197.832809,123.935822 
	C197.206589,119.142746 196.674774,115.072220 196.142944,111.001694 
	C206.534744,106.441841 216.899002,101.817520 227.334946,97.361053 
	C230.502075,96.008606 233.867233,95.119888 237.521713,94.011093 
	C239.367630,100.439064 240.833511,106.874710 242.392044,113.664368 
z"/>
<path fill="#EDEFEF" opacity="1.000000" stroke="none" 
	d="
M196.026917,110.616966 
	C196.674774,115.072220 197.206589,119.142746 197.832809,123.935822 
	C190.301666,125.603287 182.550140,126.985138 175.004120,129.100235 
	C169.362335,130.681580 163.732849,132.727539 158.559479,135.445282 
	C152.994522,138.368744 150.579880,143.589371 151.659119,150.252563 
	C151.988281,150.486740 151.984985,150.445206 151.840683,150.859161 
	C154.137802,156.168304 156.579224,161.063507 159.020645,165.958694 
	C160.759445,166.097595 162.617783,166.705261 164.217163,166.297409 
	C172.972656,164.064682 181.664581,161.582733 191.710556,158.820068 
	C190.532913,161.022568 189.914062,162.179962 189.204575,163.671478 
	C184.875168,172.646454 177.309357,176.286194 168.371048,178.101562 
	C164.834076,178.819916 161.429306,180.189209 158.829407,182.185257 
	C157.602554,183.524948 156.618942,185.564865 155.108902,186.089401 
	C146.062515,189.231934 136.894989,192.025803 127.355263,194.544464 
	C126.584869,190.971649 127.623962,188.882492 130.432388,186.800232 
	C133.514374,184.515152 135.634155,180.932281 138.716339,177.269455 
	C130.253784,176.735596 126.673111,179.946747 126.000755,187.108078 
	C125.724075,190.055023 125.196365,192.978409 124.782837,195.912506 
	C122.775322,195.641205 120.767792,195.369919 118.381821,195.147949 
	C113.225632,195.732117 110.729813,193.575104 109.003883,189.043198 
	C107.011665,183.812119 103.838036,179.041336 101.405144,173.961594 
	C100.652504,172.390121 100.643990,170.462280 100.154770,167.932739 
	C99.470978,163.528488 98.927200,159.889084 98.337685,155.943619 
	C112.148422,163.151581 122.684166,160.066620 128.372086,147.321777 
	C133.047165,136.846390 131.894348,126.371574 127.667099,115.686676 
	C125.686813,112.459763 124.069275,109.307457 121.815666,106.706207 
	C111.070564,94.303566 94.379280,96.973778 88.170105,112.110664 
	C85.427383,118.796944 84.239243,125.791092 86.105713,133.408691 
	C86.391472,135.585815 86.704468,137.361847 87.050064,139.131485 
	C88.996033,149.095871 90.949844,159.058746 92.900986,169.022125 
	C92.951393,170.170227 92.671310,171.466492 93.108330,172.441284 
	C95.216034,177.142563 92.759834,179.363464 88.502243,181.073257 
	C87.344078,179.835083 86.128311,178.535324 84.655525,177.044037 
	C79.741142,172.606659 79.525436,167.343491 80.252937,161.488022 
	C81.046783,155.098511 77.975388,147.428864 70.366966,145.608475 
	C69.214066,145.332642 68.232765,144.339645 67.039444,143.341034 
	C66.764755,141.525726 66.767479,140.016327 66.454460,138.575500 
	C65.364769,133.559814 64.537125,129.450439 69.546928,124.978043 
	C74.754745,120.328880 72.994110,113.422218 70.054535,107.371605 
	C68.870743,104.934959 68.109909,102.292816 67.246872,99.417526 
	C67.519379,98.820671 67.821960,98.568840 67.866325,98.277657 
	C69.149940,89.853706 73.949989,85.846214 82.552376,85.701973 
	C84.133591,85.675446 85.884033,83.157936 87.144493,81.480690 
	C87.858253,80.530922 87.891060,78.960129 87.962868,77.654327 
	C88.597183,66.118507 89.461700,65.072670 101.614944,62.355896 
	C102.351822,63.831074 102.703194,64.923706 103.137070,66.351929 
	C104.109276,68.264442 104.906944,69.902428 105.905151,71.407402 
	C109.594887,76.970352 114.671562,77.711411 120.778503,73.086128 
	C114.940071,70.510460 109.472992,68.098625 104.006271,65.328911 
	C104.009018,63.783363 104.011414,62.595688 104.013809,61.408012 
	C113.069153,60.937546 122.121201,60.290703 131.182175,60.121197 
	C133.434341,60.079067 135.715393,61.580685 137.983170,62.372723 
	C137.858078,62.794197 137.733002,63.215668 137.607910,63.637142 
	C143.818863,63.218006 150.029816,62.798870 156.620453,62.212379 
	C165.073944,61.626751 169.008972,68.450272 175.180099,71.361191 
	C175.047012,71.797096 174.913910,72.233002 174.780823,72.668907 
	C169.589828,73.114769 164.399170,73.564751 159.207718,74.005318 
	C154.089432,74.439667 148.970322,74.864494 142.494568,75.407227 
	C142.102951,81.672127 141.698029,88.149712 141.651199,94.812775 
	C142.009293,94.998245 141.970367,94.962517 141.850784,95.323860 
	C143.375153,98.174667 145.019104,100.664124 146.663055,103.153580 
	C154.131363,108.433304 162.425369,108.029266 170.859680,106.672852 
	C178.519211,105.441048 186.179764,104.215698 194.212082,102.927818 
	C194.818161,105.533775 195.364532,107.883003 196.026917,110.616966 
M144.506393,180.655396 
	C144.144623,180.381821 143.782837,180.108231 143.421066,179.834656 
	C143.354080,180.247208 143.287109,180.659775 143.220139,181.072327 
	C143.839813,181.066162 144.459473,181.060013 145.321136,180.907822 
	C145.197174,180.914032 145.073196,180.920242 144.506393,180.655396 
M147.980194,182.517899 
	C147.860687,182.257996 147.741180,181.998093 147.621689,181.738190 
	C147.740570,182.163742 147.859451,182.589294 148.098221,183.664963 
	C148.788422,184.033340 149.478607,184.401703 150.168808,184.770081 
	C150.306702,184.380829 150.444611,183.991577 150.582504,183.602325 
	C149.729553,183.393509 148.876587,183.184708 147.980194,182.517899 
M122.617241,69.355293 
	C122.255318,69.985710 121.893394,70.616135 121.531471,71.246552 
	C121.819405,71.362976 122.107330,71.479401 122.395256,71.595825 
	C122.667740,70.861389 122.940224,70.126953 122.617241,69.355293 
M139.807053,178.941528 
	C139.716995,178.558868 139.626953,178.176208 139.536896,177.793549 
	C139.420792,177.875153 139.197220,177.971771 139.206161,178.035934 
	C139.260406,178.424423 139.367737,178.805496 139.807053,178.941528 
M141.191147,179.051056 
	C141.281982,179.434891 141.372818,179.818710 141.463654,180.202530 
	C141.580124,180.120468 141.804459,180.023239 141.795410,179.958832 
	C141.740631,179.569061 141.632538,179.186798 141.191147,179.051056 
M128.484283,64.577515 
	C128.484283,64.577515 128.427307,64.478035 128.484283,64.577515 
z"/>
<path fill="#EAEEEF" opacity="1.000000" stroke="none" 
	d="
M103.054565,66.016342 
	C102.703194,64.923706 102.351822,63.831074 102.000397,62.370010 
	C102.483383,61.760960 102.966423,61.520332 103.731636,61.343861 
	C104.011414,62.595688 104.009018,63.783363 103.776405,65.434372 
	C103.382309,65.937248 103.218430,65.976799 103.054565,66.016342 
z"/>
<path fill="#1FBFDE" opacity="1.000000" stroke="none" 
	d="
M125.106133,195.917755 
	C125.196365,192.978409 125.724075,190.055023 126.000755,187.108078 
	C126.673111,179.946747 130.253784,176.735596 138.716339,177.269455 
	C135.634155,180.932281 133.514374,184.515152 130.432388,186.800232 
	C127.623962,188.882492 126.584869,190.971649 126.975769,194.564682 
	C126.482536,195.292313 125.955986,195.607651 125.106133,195.917755 
z"/>
<path fill="#22C2E0" opacity="1.000000" stroke="none" 
	d="
M93.308090,169.015747 
	C90.949844,159.058746 88.996033,149.095871 87.050064,139.131485 
	C86.704468,137.361847 86.391472,135.585815 86.492447,133.396271 
	C89.231491,132.654694 91.541512,132.329605 93.961830,132.360168 
	C95.012230,134.997787 95.744690,137.394714 96.932114,139.539780 
	C100.235237,145.506836 105.464996,148.342560 110.587685,147.204987 
	C116.041206,145.993927 119.994759,141.147903 119.983246,134.219650 
	C119.975456,129.537094 118.657166,124.856712 118.130661,119.877937 
	C121.469757,118.392082 124.603241,117.203636 127.736732,116.015198 
	C131.894348,126.371574 133.047165,136.846390 128.372086,147.321777 
	C122.684166,160.066620 112.148422,163.151581 98.337685,155.943619 
	C98.927200,159.889084 99.470978,163.528488 99.975693,167.586334 
	C97.862823,168.339630 95.789017,168.674500 93.308090,169.015747 
z"/>
<path fill="#ECEEEF" opacity="1.000000" stroke="none" 
	d="
M173.613495,91.903625 
	C174.988205,97.101280 178.455582,99.666443 183.937592,101.852188 
	C175.042892,103.241280 167.213287,104.917793 159.311615,105.390945 
	C157.239227,105.515060 154.943314,101.906761 152.249115,99.580719 
	C148.488907,97.753433 145.229645,96.357979 141.970367,94.962517 
	C141.970367,94.962517 142.009293,94.998245 142.026276,95.018448 
	C142.776184,89.310890 143.509125,83.583138 144.309570,77.327774 
	C154.002777,76.544830 163.767746,75.756081 173.327362,74.983925 
	C173.327362,80.854774 173.327362,86.217331 173.613495,91.903625 
z"/>
<path fill="#24C9E3" opacity="1.000000" stroke="none" 
	d="
M141.850784,95.323860 
	C145.229645,96.357979 148.488907,97.753433 151.945129,99.419968 
	C150.541794,100.740311 148.941498,101.789589 147.002136,102.996223 
	C145.019104,100.664124 143.375153,98.174667 141.850784,95.323860 
z"/>
<path fill="#ECEEEF" opacity="1.000000" stroke="none" 
	d="
M151.984985,150.445206 
	C151.984985,150.445206 151.988281,150.486740 151.985321,150.509903 
	C157.048691,147.295929 160.404053,142.810059 162.295914,137.078918 
	C162.722137,135.787766 164.077988,134.187241 165.298523,133.875717 
	C172.594101,132.013641 179.975342,130.487183 186.924362,128.938095 
	C185.523346,132.414566 184.157578,135.803574 182.810242,139.593262 
	C184.372650,145.668182 185.916641,151.342407 187.576767,157.443405 
	C179.390625,159.742538 170.129608,162.343552 160.343170,164.626831 
	C157.206833,159.687790 154.595917,155.066498 151.984985,150.445206 
z"/>
<path fill="#1FBFDE" opacity="1.000000" stroke="none" 
	d="
M151.840683,150.859161 
	C154.595917,155.066498 157.206833,159.687790 159.954529,164.632370 
	C159.818619,165.145035 159.545914,165.334412 159.146942,165.741241 
	C156.579224,161.063507 154.137802,156.168304 151.840683,150.859161 
z"/>
<path fill="#25C8E3" opacity="1.000000" stroke="none" 
	d="
M127.667099,115.686668 
	C124.603241,117.203636 121.469757,118.392082 117.838326,119.699554 
	C114.073326,114.525200 109.763161,110.969307 103.122238,112.189964 
	C98.734406,112.996490 94.565308,118.639755 94.053787,124.084816 
	C93.807365,126.707901 93.908028,129.363586 93.851524,132.004517 
	C91.541512,132.329605 89.231491,132.654694 86.534729,132.992218 
	C84.239243,125.791092 85.427383,118.796944 88.170105,112.110664 
	C94.379280,96.973778 111.070564,94.303566 121.815666,106.706207 
	C124.069275,109.307457 125.686813,112.459763 127.667099,115.686668 
z"/>
<path fill="#2FCFE6" opacity="1.000000" stroke="none" 
	d="
M103.137062,66.351929 
	C103.218430,65.976799 103.382309,65.937248 103.776047,65.792244 
	C109.472992,68.098625 114.940071,70.510460 120.778503,73.086128 
	C114.671562,77.711411 109.594887,76.970352 105.905151,71.407402 
	C104.906944,69.902428 104.109276,68.264442 103.137062,66.351929 
z"/>
<path fill="#EAEEEF" opacity="1.000000" stroke="none" 
	d="
M122.914970,69.373909 
	C122.940224,70.126953 122.667740,70.861389 122.395264,71.595825 
	C122.107330,71.479401 121.819405,71.362976 121.531471,71.246552 
	C121.893394,70.616135 122.255318,69.985710 122.914970,69.373909 
z"/>
<path fill="#EAEEEF" opacity="1.000000" stroke="none" 
	d="
M148.023636,182.975891 
	C148.876587,183.184708 149.729553,183.393509 150.582504,183.602325 
	C150.444611,183.991577 150.306702,184.380829 150.168808,184.770081 
	C149.478607,184.401703 148.788422,184.033340 148.050262,183.331146 
	C148.002304,182.997345 148.023636,182.975891 148.023636,182.975891 
z"/>
<path fill="#EAEEEF" opacity="1.000000" stroke="none" 
	d="
M145.079147,181.053864 
	C144.459473,181.060013 143.839813,181.066162 143.220139,181.072327 
	C143.287109,180.659775 143.354080,180.247208 143.421066,179.834656 
	C143.782837,180.108231 144.144623,180.381821 144.757614,180.825516 
	C145.008835,180.995636 145.079147,181.053864 145.079147,181.053864 
z"/>
<path fill="#EAEEEF" opacity="1.000000" stroke="none" 
	d="
M139.632187,179.065292 
	C139.367737,178.805496 139.260406,178.424423 139.206161,178.035934 
	C139.197220,177.971771 139.420792,177.875153 139.536896,177.793549 
	C139.626953,178.176208 139.716995,178.558868 139.632187,179.065292 
z"/>
<path fill="#EAEEEF" opacity="1.000000" stroke="none" 
	d="
M141.366699,178.926544 
	C141.632538,179.186798 141.740631,179.569061 141.795410,179.958832 
	C141.804459,180.023239 141.580124,180.120468 141.463654,180.202545 
	C141.372818,179.818710 141.281982,179.434891 141.366699,178.926544 
z"/>
<path fill="#EAEEEF" opacity="1.000000" stroke="none" 
	d="
M147.990326,183.006104 
	C147.859451,182.589294 147.740570,182.163742 147.621674,181.738190 
	C147.741180,181.998093 147.860687,182.257996 148.001923,182.746887 
	C148.023636,182.975891 148.002304,182.997345 147.990326,183.006104 
z"/>
<path fill="#EAEEEF" opacity="1.000000" stroke="none" 
	d="
M128.455795,64.527771 
	C128.427307,64.478035 128.484283,64.577515 128.455795,64.527771 
z"/>
<path fill="#EAEEEF" opacity="1.000000" stroke="none" 
	d="
M144.979034,180.961060 
	C145.073196,180.920242 145.197174,180.914032 145.200134,180.980835 
	C145.079147,181.053864 145.008835,180.995636 144.979034,180.961060 
z"/>
<path fill="#EDEFEF" opacity="1.000000" stroke="none" 
	d="
M93.961830,132.360153 
	C93.908028,129.363586 93.807365,126.707901 94.053787,124.084816 
	C94.565308,118.639755 98.734406,112.996490 103.122238,112.189964 
	C109.763161,110.969307 114.073326,114.525200 117.632713,119.996979 
	C118.657166,124.856712 119.975456,129.537094 119.983246,134.219650 
	C119.994759,141.147903 116.041206,145.993927 110.587685,147.204987 
	C105.464996,148.342560 100.235237,145.506836 96.932114,139.539780 
	C95.744690,137.394714 95.012230,134.997787 93.961830,132.360153 
z"/>
</svg>