<svg width="402" height="361" viewBox="0 0 402 361" fill="none" xmlns="http://www.w3.org/2000/svg">
<path d="M369 271.09C373 271.09 381.81 243.09 382.82 240.2C391.824 214.393 395.514 187.031 393.67 159.76C391.21 126.13 386.67 89.54 363.02 63.55C315.13 10.81 226.02 17.45 180.74 69.47C167.37 84.82 153.31 100.6 135.39 110.75C114.94 122.33 90.8701 120.75 68.9201 127.93C35.5701 138.83 9.67009 176.81 10.5501 212.13C11.2601 240.74 33.0001 269.67 63.0001 271.76C91.6601 273.76 368.88 271.09 369 271.09Z" fill="#26498D"/>
<path opacity="0.8" d="M369 271.09C373 271.09 381.81 243.09 382.82 240.2C391.824 214.393 395.514 187.031 393.67 159.76C391.21 126.13 386.67 89.54 363.02 63.55C315.13 10.81 226.02 17.45 180.74 69.47C167.37 84.82 153.31 100.6 135.39 110.75C114.94 122.33 90.8701 120.75 68.9201 127.93C35.5701 138.83 9.67009 176.81 10.5501 212.13C11.2601 240.74 33.0001 269.67 63.0001 271.76C91.6601 273.76 368.88 271.09 369 271.09Z" fill="white"/>
<path d="M267.22 27.46C263.08 27.76 258.96 28.2566 254.86 28.95V272L267.22 271.92V27.46Z" fill="#26498D"/>
<path d="M322 35.4201C317.964 33.8302 313.841 32.4714 309.65 31.3501V271.6L322 271.5V35.4201Z" fill="#26498D"/>
<path d="M376.76 83.5301C373.389 76.9279 369.243 70.7511 364.41 65.1301V271.13L369 271.08C370.94 271.08 374 264.51 376.76 257.42V83.5301Z" fill="#26498D"/>
<path d="M282.25 271.81L294.6 271.72V28.3C290.507 27.7333 286.39 27.3666 282.25 27.2V271.81Z" fill="#26498D"/>
<path d="M200.09 272.32L212.44 272.25V43.8601C208.17 46.2524 204.046 48.8971 200.09 51.7801V272.32Z" fill="#26498D"/>
<path d="M239.83 32.3999C235.65 33.6199 231.52 35.0299 227.48 36.6599V272.17L239.83 272.1V32.3999Z" fill="#26498D"/>
<path d="M172.7 78.58V272.43L185.05 272.38V64.79C183.584 66.31 182.147 67.87 180.74 69.47C178.1 72.51 175.42 75.56 172.7 78.58Z" fill="#26498D"/>
<path d="M102.89 121C98.79 121.71 94.66 122.35 90.54 123V272.37L102.89 272.44V121Z" fill="#26498D"/>
<path d="M63.1602 130.12V271.77C65.6302 271.94 69.8502 272.07 75.5102 272.17V126C73.2902 126.56 71.0902 127.18 68.9202 127.89C67.0002 128.57 65.0502 129.31 63.1602 130.12Z" fill="#26498D"/>
<path d="M349.38 50.9301C345.448 47.8869 341.311 45.1171 337 42.6401V271.38L349.35 271.27L349.38 50.9301Z" fill="#26498D"/>
<path d="M130.28 113.34C126.287 115.133 122.157 116.605 117.93 117.74V272.49H130.28V113.34Z" fill="#26498D"/>
<path d="M391.8 204C394.086 189.388 394.713 174.564 393.67 159.81C393.18 153.08 392.6 146.23 391.8 139.37V204Z" fill="#26498D"/>
<path d="M145.32 272.49H157.67V94C153.758 97.6648 149.634 101.097 145.32 104.28V272.49Z" fill="#26498D"/>
<g opacity="0.8">
<path opacity="0.8" d="M267.22 27.46C263.08 27.76 258.96 28.2566 254.86 28.95V272L267.22 271.92V27.46Z" fill="white"/>
<path opacity="0.8" d="M322 35.4198C317.964 33.83 313.841 32.4711 309.65 31.3499V271.6L322 271.5V35.4198Z" fill="white"/>
<path opacity="0.8" d="M376.76 83.5299C373.389 76.9277 369.243 70.7508 364.41 65.1299V271.13L369 271.08C370.94 271.08 374 264.51 376.76 257.42V83.5299Z" fill="white"/>
<path opacity="0.8" d="M282.25 271.81L294.6 271.72V28.3C290.507 27.7333 286.39 27.3666 282.25 27.2V271.81Z" fill="white"/>
<path opacity="0.8" d="M200.09 272.32L212.44 272.25V43.8599C208.17 46.2522 204.046 48.8969 200.09 51.7799V272.32Z" fill="white"/>
<path opacity="0.8" d="M239.83 32.3999C235.65 33.6199 231.52 35.0299 227.48 36.6599V272.17L239.83 272.1V32.3999Z" fill="white"/>
<path opacity="0.8" d="M172.7 78.58V272.43L185.05 272.38V64.79C183.584 66.31 182.147 67.87 180.74 69.47C178.1 72.51 175.42 75.56 172.7 78.58Z" fill="white"/>
<path opacity="0.8" d="M102.89 121C98.79 121.71 94.66 122.35 90.54 123V272.37L102.89 272.44V121Z" fill="white"/>
<path opacity="0.8" d="M63.1602 130.12V271.77C65.6302 271.94 69.8502 272.07 75.5102 272.17V126C73.2902 126.56 71.0902 127.18 68.9202 127.89C67.0002 128.57 65.0502 129.31 63.1602 130.12Z" fill="white"/>
<path opacity="0.8" d="M349.38 50.9299C345.448 47.8867 341.311 45.1168 337 42.6399V271.38L349.35 271.27L349.38 50.9299Z" fill="white"/>
<path opacity="0.8" d="M130.28 113.34C126.287 115.133 122.157 116.604 117.93 117.74V272.49H130.28V113.34Z" fill="white"/>
<path opacity="0.8" d="M391.8 204C394.086 189.387 394.713 174.563 393.67 159.81C393.18 153.08 392.6 146.23 391.8 139.37V204Z" fill="white"/>
<path opacity="0.8" d="M145.32 272.49H157.67V94C153.758 97.6648 149.634 101.097 145.32 104.28V272.49Z" fill="white"/>
</g>
<path d="M196.89 195.7C196.89 195.7 212.77 173.94 205.02 168.84C196.96 163.52 193.17 179.62 191.47 187.53C187.83 204.4 188.86 207.98 191.3 204.27L196.89 195.7Z" fill="#26498D"/>
<path d="M202.87 209.07C202.87 209.07 224.96 193.66 219.29 186.31C213.39 178.66 204.58 192.66 200.4 199.58C191.48 214.36 191.29 218.08 194.8 215.37L202.87 209.07Z" fill="#26498D"/>
<path d="M203.32 227C203.32 227 222.44 218.41 219.17 212C215.77 205.3 207 214.72 202.8 219.41C193.8 229.41 193.16 232.24 196.24 230.67L203.32 227Z" fill="#26498D"/>
<path d="M204.461 244.9C204.461 244.9 223.581 236.32 220.311 229.9C216.901 223.2 208.141 232.62 203.941 237.31C194.941 247.31 194.291 250.14 197.371 248.57L204.461 244.9Z" fill="#26498D"/>
<path d="M182.001 204.79C182.001 204.79 161.001 187.92 155.541 195.43C149.861 203.24 165.771 207.76 173.541 209.83C190.231 214.24 193.861 213.37 190.261 210.76L182.001 204.79Z" fill="#26498D"/>
<path d="M182.67 218.87C182.67 218.87 158.73 206.52 154.87 214.96C150.87 223.74 167.35 225.01 175.43 225.48C192.66 226.48 196.04 224.92 192 223.07L182.67 218.87Z" fill="#26498D"/>
<path d="M185.561 234.67C185.561 234.67 165.001 224.77 162.001 232C158.811 239.52 172.781 240.21 179.621 240.43C194.221 240.87 197.041 239.43 193.621 238.01L185.561 234.67Z" fill="#26498D"/>
<path d="M186.541 247.43C186.541 247.43 167.181 235.43 163.361 242.27C159.361 249.41 173.211 251.58 179.991 252.52C194.461 254.52 197.421 253.42 194.131 251.59L186.541 247.43Z" fill="#26498D"/>
<path d="M184.731 183.42C184.731 183.42 181.091 151.83 169.171 155.06C156.771 158.42 167.171 174.41 172.391 182.12C183.581 198.56 187.691 200.38 186.811 195.24L184.731 183.42Z" fill="#26498D"/>
<path opacity="0.5" d="M196.89 195.7C196.89 195.7 212.77 173.94 205.02 168.84C196.96 163.52 193.17 179.62 191.47 187.53C187.83 204.4 188.86 207.98 191.3 204.27L196.89 195.7Z" fill="white"/>
<path opacity="0.5" d="M202.87 209.07C202.87 209.07 224.96 193.66 219.29 186.31C213.39 178.66 204.58 192.66 200.4 199.58C191.48 214.36 191.29 218.08 194.8 215.37L202.87 209.07Z" fill="white"/>
<path opacity="0.5" d="M203.32 227C203.32 227 222.44 218.41 219.17 212C215.77 205.3 207 214.72 202.8 219.41C193.8 229.41 193.16 232.24 196.24 230.67L203.32 227Z" fill="white"/>
<path opacity="0.5" d="M204.461 244.9C204.461 244.9 223.581 236.32 220.311 229.9C216.901 223.2 208.141 232.62 203.941 237.31C194.941 247.31 194.291 250.14 197.371 248.57L204.461 244.9Z" fill="white"/>
<path opacity="0.5" d="M182.001 204.79C182.001 204.79 161.001 187.92 155.541 195.43C149.861 203.24 165.771 207.76 173.541 209.83C190.231 214.24 193.861 213.37 190.261 210.76L182.001 204.79Z" fill="white"/>
<path opacity="0.5" d="M182.67 218.87C182.67 218.87 158.73 206.52 154.87 214.96C150.87 223.74 167.35 225.01 175.43 225.48C192.66 226.48 196.04 224.92 192 223.07L182.67 218.87Z" fill="white"/>
<path opacity="0.5" d="M185.561 234.67C185.561 234.67 165.001 224.77 162.001 232C158.811 239.52 172.781 240.21 179.621 240.43C194.221 240.87 197.041 239.43 193.621 238.01L185.561 234.67Z" fill="white"/>
<path opacity="0.5" d="M186.541 247.43C186.541 247.43 167.181 235.43 163.361 242.27C159.361 249.41 173.211 251.58 179.991 252.52C194.461 254.52 197.421 253.42 194.131 251.59L186.541 247.43Z" fill="white"/>
<path opacity="0.5" d="M184.731 183.42C184.731 183.42 181.091 151.83 169.171 155.06C156.771 158.42 167.171 174.41 172.391 182.12C183.581 198.56 187.691 200.38 186.811 195.24L184.731 183.42Z" fill="white"/>
<path d="M171.601 166.54C171.601 166.54 189.761 200.54 192.601 216.39C195.841 234.54 196.371 254.8 194.131 270.69" stroke="#263238" stroke-width="0.75" stroke-linecap="round" stroke-linejoin="round"/>
<path d="M189.71 205.88L198.61 178.63" stroke="#263238" stroke-width="0.75" stroke-linecap="round" stroke-linejoin="round"/>
<path d="M192.58 216.39L209.33 195.33" stroke="#263238" stroke-width="0.75" stroke-linecap="round" stroke-linejoin="round"/>
<path d="M191.511 212.56L167.261 202.37" stroke="#263238" stroke-width="0.75" stroke-linecap="round" stroke-linejoin="round"/>
<path d="M194.681 230.65L212.911 216.67" stroke="#263238" stroke-width="0.75" stroke-linecap="round" stroke-linejoin="round"/>
<path d="M193.71 224.65L174.66 220.69" stroke="#263238" stroke-width="0.75" stroke-linecap="round" stroke-linejoin="round"/>
<path d="M194.63 239.24L179.88 236.9" stroke="#263238" stroke-width="0.75" stroke-linecap="round" stroke-linejoin="round"/>
<path d="M195.87 248.68L205.79 239.8" stroke="#263238" stroke-width="0.75" stroke-linecap="round" stroke-linejoin="round"/>
<path d="M195.671 252.68L178.721 248.42" stroke="#263238" stroke-width="0.75" stroke-linecap="round" stroke-linejoin="round"/>
<path d="M228.861 233.42C228.861 233.42 227.921 215.69 234.041 215.66C240.411 215.66 236.701 225.88 234.791 230.86C230.721 241.49 228.861 243.1 228.851 240.17L228.861 233.42Z" fill="#26498D"/>
<path d="M220.74 238.65C220.74 238.65 214.09 222.18 219.87 220.17C225.87 218.07 225.7 228.97 225.52 234.3C225.12 245.67 223.88 247.8 222.92 245.03L220.74 238.65Z" fill="#26498D"/>
<path d="M214.051 248.36C214.051 248.36 206.591 236.73 210.711 234.36C215.001 231.89 216.451 240.25 217.081 244.36C218.421 253.11 217.781 254.91 216.651 252.94L214.051 248.36Z" fill="#26498D"/>
<path d="M207.001 257.86C207.001 257.86 199.541 246.23 203.661 243.86C207.961 241.38 209.401 249.74 210.031 253.86C211.371 262.61 210.741 264.41 209.601 262.43L207.001 257.86Z" fill="#26498D"/>
<path d="M233.78 243.79C233.78 243.79 251.45 242.04 251.78 248.15C252.1 254.51 241.69 251.28 236.63 249.6C225.82 246.02 224.13 244.24 227.06 244.09L233.78 243.79Z" fill="#26498D"/>
<path d="M228.361 251.34C228.361 251.34 246.031 253.14 245.111 259.19C244.171 265.48 234.611 260.25 229.981 257.6C220.101 251.94 218.801 249.86 221.701 250.3L228.361 251.34Z" fill="#26498D"/>
<path d="M221.07 259C221.07 259 235.97 260.93 235.07 266C234.12 271.3 226.16 266.65 222.3 264.31C214.08 259.31 213.03 257.5 215.47 257.94L221.07 259Z" fill="#26498D"/>
<path d="M215.941 265.71C215.941 265.71 230.941 266.05 230.591 271.21C230.211 276.58 221.801 272.8 217.721 270.88C209.011 266.77 207.721 265.1 210.241 265.27L215.941 265.71Z" fill="#26498D"/>
<path d="M240.001 231C240.001 231 253.391 214.87 258.811 221C264.441 227.32 252.961 232.41 247.291 234.78C235.181 239.83 232.291 239.35 234.591 236.83L240.001 231Z" fill="#26498D"/>
<path opacity="0.5" d="M228.861 233.42C228.861 233.42 227.921 215.69 234.041 215.66C240.411 215.66 236.701 225.88 234.791 230.86C230.721 241.49 228.861 243.1 228.851 240.17L228.861 233.42Z" fill="white"/>
<path opacity="0.5" d="M220.74 238.65C220.74 238.65 214.09 222.18 219.87 220.17C225.87 218.07 225.7 228.97 225.52 234.3C225.12 245.67 223.88 247.8 222.92 245.03L220.74 238.65Z" fill="white"/>
<path opacity="0.5" d="M214.051 248.36C214.051 248.36 206.591 236.73 210.711 234.36C215.001 231.89 216.451 240.25 217.081 244.36C218.421 253.11 217.781 254.91 216.651 252.94L214.051 248.36Z" fill="white"/>
<path opacity="0.5" d="M207.001 257.86C207.001 257.86 199.541 246.23 203.661 243.86C207.961 241.38 209.401 249.74 210.031 253.86C211.371 262.61 210.741 264.41 209.601 262.43L207.001 257.86Z" fill="white"/>
<path opacity="0.5" d="M233.78 243.79C233.78 243.79 251.45 242.04 251.78 248.15C252.1 254.51 241.69 251.28 236.63 249.6C225.82 246.02 224.13 244.24 227.06 244.09L233.78 243.79Z" fill="white"/>
<path opacity="0.5" d="M228.361 251.34C228.361 251.34 246.031 253.14 245.111 259.19C244.171 265.48 234.611 260.25 229.981 257.6C220.101 251.94 218.801 249.86 221.701 250.3L228.361 251.34Z" fill="white"/>
<path opacity="0.5" d="M221.07 259C221.07 259 235.97 260.93 235.07 266C234.12 271.3 226.16 266.65 222.3 264.31C214.08 259.31 213.03 257.5 215.47 257.94L221.07 259Z" fill="white"/>
<path opacity="0.5" d="M215.941 265.71C215.941 265.71 230.941 266.05 230.591 271.21C230.211 276.58 221.801 272.8 217.721 270.88C209.011 266.77 207.721 265.1 210.241 265.27L215.941 265.71Z" fill="white"/>
<path opacity="0.5" d="M240.001 231C240.001 231 253.391 214.87 258.811 221C264.441 227.32 252.961 232.41 247.291 234.78C235.181 239.83 232.291 239.35 234.591 236.83L240.001 231Z" fill="white"/>
<path d="M253.32 226.43C253.32 226.43 231.03 238.69 223.78 246.43C215.55 255.167 208.674 265.087 203.38 275.86" stroke="#263238" stroke-width="0.75" stroke-linecap="round" stroke-linejoin="round"/>
<path d="M229.15 241.63L234.06 223.38" stroke="#263238" stroke-width="0.75" stroke-linecap="round" stroke-linejoin="round"/>
<path d="M223.78 246.39L222.12 228.74" stroke="#263238" stroke-width="0.75" stroke-linecap="round" stroke-linejoin="round"/>
<path d="M225.75 244.67L242.81 247.78" stroke="#263238" stroke-width="0.75" stroke-linecap="round" stroke-linejoin="round"/>
<path d="M217.49 253.51L212.45 239.23" stroke="#263238" stroke-width="0.75" stroke-linecap="round" stroke-linejoin="round"/>
<path d="M220.181 250.55L232.121 255.22" stroke="#263238" stroke-width="0.75" stroke-linecap="round" stroke-linejoin="round"/>
<path d="M214.42 258.28L223.41 262.3" stroke="#263238" stroke-width="0.75" stroke-linecap="round" stroke-linejoin="round"/>
<path d="M210.331 263.04L208.061 254.56" stroke="#263238" stroke-width="0.75" stroke-linecap="round" stroke-linejoin="round"/>
<path d="M209 265.32L219.89 269.07" stroke="#263238" stroke-width="0.75" stroke-linecap="round" stroke-linejoin="round"/>
<path d="M62.9201 62.59L59.5801 53.46L61.3601 55.46V52.34L65.1401 58.13L61.8001 37.42L66.2601 48.78L66.7001 38.76L67.3701 42.1L68.2601 30.74L69.8201 48.11L72.0501 42.1L71.6001 49.89L77.6101 32.08L74.7201 54.35L78.9501 51.23L76.5001 55.24L79.6201 53.01L76.0601 63.25L63.1401 63.48" fill="#26498D"/>
<path d="M77.2003 85.07H63.2803L59.5303 60.95H80.9503L77.2003 85.07Z" fill="#263238" stroke="#263238" stroke-linecap="round" stroke-linejoin="round"/>
<path d="M395.271 93.0993C398.751 72.7785 385.1 53.4835 364.779 50.0027C344.458 46.5219 325.163 60.1734 321.682 80.4942C318.202 100.815 331.853 120.11 352.174 123.591C372.495 127.072 391.79 113.42 395.271 93.0993Z" fill="#263238"/>
<path d="M358.479 116.8C375.048 116.8 388.479 103.369 388.479 86.8C388.479 70.2315 375.048 56.8 358.479 56.8C341.911 56.8 328.479 70.2315 328.479 86.8C328.479 103.369 341.911 116.8 358.479 116.8Z" fill="white" stroke="#263238" stroke-linecap="round" stroke-linejoin="round"/>
<path d="M361.15 86.7999C361.15 87.328 360.993 87.8442 360.7 88.2832C360.406 88.7223 359.989 89.0645 359.501 89.2666C359.013 89.4687 358.477 89.5216 357.959 89.4186C357.441 89.3156 356.965 89.0613 356.592 88.6879C356.218 88.3144 355.964 87.8387 355.861 87.3208C355.758 86.8028 355.811 86.266 356.013 85.7781C356.215 85.2902 356.557 84.8732 356.996 84.5798C357.435 84.2865 357.952 84.1299 358.48 84.1299C359.187 84.1325 359.864 84.4147 360.365 84.9148C360.865 85.415 361.147 86.0926 361.15 86.7999Z" fill="#263238"/>
<path d="M349.54 100.34L358.48 86.8L373.58 99.29" stroke="#263238" stroke-linecap="round" stroke-linejoin="round"/>
<path d="M131.18 84.9099H22.6904V271.86H131.18V84.9099Z" fill="#263238" stroke="#263238" stroke-linecap="round" stroke-linejoin="round"/>
<path d="M131.18 84.9099H60.9004V271.86H131.18V84.9099Z" fill="white" stroke="#263238" stroke-linecap="round" stroke-linejoin="round"/>
<path d="M126.4 91.0498H64.9902V136.08H126.4V91.0498Z" fill="white" stroke="#263238" stroke-linecap="round" stroke-linejoin="round"/>
<path d="M107.97 109.47H83.4102V117.66H107.97V109.47Z" fill="#263238"/>
<path d="M126.4 143.59H64.9902V188.62H126.4V143.59Z" fill="white" stroke="#263238" stroke-linecap="round" stroke-linejoin="round"/>
<path d="M107.97 162.01H83.4102V170.2H107.97V162.01Z" fill="#263238"/>
<path d="M126.4 196.13H64.9902V241.16H126.4V196.13Z" fill="white" stroke="#263238" stroke-linecap="round" stroke-linejoin="round"/>
<path d="M107.97 214.55H83.4102V222.74H107.97V214.55Z" fill="#263238"/>
<path d="M252.83 138.82C252.83 138.82 252.12 133.12 245.94 123.39C239.76 113.66 245.71 110.57 252.12 102.74C258.53 94.91 268.49 96.57 273.95 97.74C279.41 98.91 288.67 101.3 290.8 108.66C292.93 116.02 293.65 132.16 293.89 133.59C294.13 135.02 291.52 135.48 290.33 135.25C289.14 135.02 286.53 121.72 283.21 118.87C279.89 116.02 265.21 117.92 261.13 122.87C257.05 127.82 258.29 134.98 258.52 138.07C258.75 141.16 257.34 142.07 255.91 142.34C254.48 142.61 252.83 138.82 252.83 138.82Z" fill="#263238" stroke="#263238" stroke-linecap="round" stroke-linejoin="round"/>
<path d="M273.58 155.26C273.58 155.26 251.58 160.26 244.83 162.26C238.08 164.26 231.83 165.76 233.08 168.76C234.33 171.76 226.33 196.76 226.33 196.76L215.08 224L231.08 236.5L243.83 211.75L255.33 268H332.58C332.58 268 330.33 174.25 326.58 169.5C322.83 164.75 293.08 154.5 285.83 153.75C281.685 153.257 277.482 153.775 273.58 155.26Z" fill="#26498D" stroke="#263238" stroke-linecap="round" stroke-linejoin="round"/>
<path d="M310 209.16C306.675 202.031 303.848 194.68 301.54 187.16" stroke="#263238" stroke-linecap="round" stroke-linejoin="round"/>
<path d="M302.779 207.12C305.322 210.259 308.932 212.353 312.919 213" stroke="#263238" stroke-linecap="round" stroke-linejoin="round"/>
<path d="M299.8 202C300.179 203.049 300.669 204.054 301.26 205" stroke="#263238" stroke-linecap="round" stroke-linejoin="round"/>
<path d="M239.55 188.48L243.83 211.76L236.02 188.47" stroke="#263238" stroke-linecap="round" stroke-linejoin="round"/>
<path d="M238.05 180.34L238.95 185.24" stroke="#263238" stroke-linecap="round" stroke-linejoin="round"/>
<path d="M256.149 141.43C256.149 141.43 253.779 135.73 251.639 135.73C249.499 135.73 249.979 138.82 250.929 142.38C251.879 145.94 254.729 149.97 256.859 149.97H258.999L256.149 141.43Z" fill="white" stroke="#263238" stroke-linecap="round" stroke-linejoin="round"/>
<path d="M290.569 131.93C290.569 131.93 292.939 125.05 294.129 128.61C295.27 132.556 295.353 136.732 294.369 140.72C293.419 144.51 293.179 145.94 292.229 145.72C291.279 145.5 290.569 131.93 290.569 131.93Z" fill="white" stroke="#263238" stroke-linecap="round" stroke-linejoin="round"/>
<path d="M267.669 189.65L268.449 190.51L270.259 192.49L274.279 201.22L271.919 255.76L279.709 267.8L286.549 252.69L276.399 200.99L278.529 191.54L280.649 185.17L279.239 183.99L276.869 188.71L269.789 188.48L266.489 185.88L265.069 188.95L267.669 189.65Z" fill="#263238" stroke="#263238" stroke-linecap="round" stroke-linejoin="round"/>
<path d="M263.42 153.77C263.42 153.77 257.75 160.62 257.28 167.23C256.81 173.84 262.28 193.9 262.28 193.9C262.28 193.9 269.6 188.47 274.28 188.47C278.96 188.47 289.86 197.68 289.86 197.68C289.86 197.68 297.18 174.07 293.4 160.14C289.62 146.21 273.33 142.67 263.42 153.77Z" fill="white" stroke="#263238" stroke-linecap="round" stroke-linejoin="round"/>
<path d="M263.89 156.13C263.89 156.13 265.78 164.87 267.19 170.53C268.6 176.19 272.39 189.42 274.28 188.47C276.17 187.52 284.43 167.93 284.67 162.98C284.91 158.03 268.85 145 263.89 156.13Z" fill="#26498D"/>
<mask id="mask0_120_191" style="mask-type:luminance" maskUnits="userSpaceOnUse" x="263" y="151" width="22" height="38">
<path d="M263.89 156.13C263.89 156.13 265.78 164.87 267.19 170.53C268.6 176.19 272.39 189.42 274.28 188.47C276.17 187.52 284.43 167.93 284.67 162.98C284.91 158.03 268.85 145 263.89 156.13Z" fill="white"/>
</mask>
<g mask="url(#mask0_120_191)">
<path opacity="0.5" d="M263.89 156.13C263.89 156.13 265.78 164.87 267.19 170.53C268.6 176.19 272.39 189.42 274.28 188.47C276.17 187.52 284.43 167.93 284.67 162.98C284.91 158.03 268.85 145 263.89 156.13Z" fill="white" stroke="#263238" stroke-linecap="round" stroke-linejoin="round"/>
</g>
<path d="M263.89 156.13C263.89 156.13 265.78 164.87 267.19 170.53C268.6 176.19 272.39 189.42 274.28 188.47C276.17 187.52 284.43 167.93 284.67 162.98C284.91 158.03 268.85 145 263.89 156.13Z" stroke="#263238" stroke-linecap="round" stroke-linejoin="round"/>
<path d="M257.52 120.23C257.52 120.23 254.3 125.84 254.79 130.16C255.28 134.48 255.86 143.09 258.21 149.49C260.56 155.89 268.09 162.68 273.72 168.15C279.35 173.62 284.41 170.09 286.21 167.49C288.01 164.89 290.7 155.36 292.03 148.05C293.36 140.74 290.64 123.05 288.15 118.56C285.66 114.07 269.71 107.09 257.52 120.23Z" fill="white"/>
<mask id="mask1_120_191" style="mask-type:luminance" maskUnits="userSpaceOnUse" x="254" y="112" width="39" height="60">
<path d="M257.52 120.23C257.52 120.23 254.3 125.84 254.79 130.16C255.28 134.48 255.86 143.09 258.21 149.49C260.56 155.89 268.09 162.68 273.72 168.15C279.35 173.62 284.41 170.09 286.21 167.49C288.01 164.89 290.7 155.36 292.03 148.05C293.36 140.74 290.64 123.05 288.15 118.56C285.66 114.07 269.71 107.09 257.52 120.23Z" fill="white"/>
</mask>
<g mask="url(#mask1_120_191)">
<path d="M257.52 120.23C256.654 121.821 255.954 123.497 255.43 125.23C256.03 125.54 262.26 128.73 265.01 128.73C267.76 128.73 257.29 130.34 260.51 134.2C263.73 138.06 279.15 134.52 283.97 130.98C288.79 127.44 289.12 128.41 289.12 128.41C289.12 128.41 291.37 144.48 289.76 153.16C288.15 161.84 285.58 166.98 281.4 168.27C277.22 169.56 271.27 164.27 267.58 160.27C265.625 158.233 263.46 156.41 261.12 154.83C264.5 159.56 269.61 164.25 273.72 168.24C279.34 173.71 284.41 170.18 286.21 167.58C288.01 164.98 290.7 155.45 292.03 148.14C293.36 140.83 290.64 123.14 288.15 118.65C285.66 114.16 269.71 107.09 257.52 120.23Z" fill="#26498D"/>
<path opacity="0.5" d="M257.52 120.23C256.654 121.821 255.954 123.497 255.43 125.23C256.03 125.54 262.26 128.73 265.01 128.73C267.76 128.73 257.29 130.34 260.51 134.2C263.73 138.06 279.15 134.52 283.97 130.98C288.79 127.44 289.12 128.41 289.12 128.41C289.12 128.41 291.37 144.48 289.76 153.16C288.15 161.84 285.58 166.98 281.4 168.27C277.22 169.56 271.27 164.27 267.58 160.27C265.625 158.233 263.46 156.41 261.12 154.83C264.5 159.56 269.61 164.25 273.72 168.24C279.34 173.71 284.41 170.18 286.21 167.58C288.01 164.98 290.7 155.45 292.03 148.14C293.36 140.83 290.64 123.14 288.15 118.65C285.66 114.16 269.71 107.09 257.52 120.23Z" fill="white"/>
<path d="M269.89 144.13C270.13 145.47 269.78 146.66 269.11 146.78C268.44 146.9 267.7 145.91 267.45 144.57C267.2 143.23 267.56 142.03 268.23 141.91C268.9 141.79 269.65 142.78 269.89 144.13Z" fill="#263238"/>
<path d="M282.1 141.42C282.34 142.76 282 143.95 281.32 144.07C280.64 144.19 279.91 143.2 279.66 141.86C279.41 140.52 279.77 139.32 280.44 139.2C281.11 139.08 281.86 140.07 282.1 141.42Z" fill="#263238"/>
<path d="M261.63 140.54C261.63 140.54 262.18 137.54 270.16 137.54" stroke="#263238" stroke-linecap="round" stroke-linejoin="round"/>
<path d="M277 136.41C277 136.41 279.48 130.63 284.43 133.94" stroke="#263238" stroke-linecap="round" stroke-linejoin="round"/>
<path d="M277.58 140.81C277.58 140.81 277.86 145.76 280.06 147.96C282.26 150.16 281.98 150.96 280.06 152.64C279.446 153.119 278.726 153.444 277.96 153.587C277.194 153.729 276.406 153.686 275.66 153.46" stroke="#263238" stroke-linecap="round" stroke-linejoin="round"/>
<path d="M277 159.51C277 159.51 281.4 158.96 283.33 157.31" stroke="#263238" stroke-linecap="round" stroke-linejoin="round"/>
</g>
<path d="M257.52 120.23C257.52 120.23 254.3 125.84 254.79 130.16C255.28 134.48 255.86 143.09 258.21 149.49C260.56 155.89 268.09 162.68 273.72 168.15C279.35 173.62 284.41 170.09 286.21 167.49C288.01 164.89 290.7 155.36 292.03 148.05C293.36 140.74 290.64 123.05 288.15 118.56C285.66 114.07 269.71 107.09 257.52 120.23Z" stroke="#263238" stroke-linecap="round" stroke-linejoin="round"/>
<path d="M249.149 120.59C249.149 120.59 258.479 124.25 262.939 124.25C267.399 124.25 264.939 125.06 262.129 127.49C259.319 129.92 258.889 133.17 269.439 133.17C279.989 133.17 289.309 121.81 292.559 112.08C295.809 102.35 297.429 103.96 291.749 101.08C286.069 98.1999 271.459 105.54 271.459 105.54" fill="#263238"/>
<path d="M249.149 120.59C249.149 120.59 258.479 124.25 262.939 124.25C267.399 124.25 264.939 125.06 262.129 127.49C259.319 129.92 258.889 133.17 269.439 133.17C279.989 133.17 289.309 121.81 292.559 112.08C295.809 102.35 297.429 103.96 291.749 101.08C286.069 98.1999 271.459 105.54 271.459 105.54" stroke="#263238" stroke-linecap="round" stroke-linejoin="round"/>
<path d="M287.529 108.48C287.529 108.48 290.069 123.71 275.689 127.94" stroke="white" stroke-linecap="round" stroke-linejoin="round"/>
<path d="M284.57 108.48C284.57 108.48 278.63 117.89 268.08 119.06C257.53 120.23 251.58 113.98 251.58 113.98" stroke="white" stroke-linecap="round" stroke-linejoin="round"/>
<path d="M255.81 123.71C255.81 123.71 249.89 124.13 246.93 120.71" stroke="white" stroke-linecap="round" stroke-linejoin="round"/>
<path d="M234.33 230.26C234.33 230.26 232.83 224.26 224.33 221.01C215.83 217.76 214.83 219.26 213.58 221.76C212.33 224.26 208.58 228.01 209.33 230.51C210.08 233.01 213.08 239.01 224.08 241.26C235.08 243.51 232.83 238.01 234.08 236.51C235.33 235.01 236.58 235.76 234.33 230.26Z" fill="white" stroke="#263238" stroke-linecap="round" stroke-linejoin="round"/>
<path d="M153.58 251.26C153.58 251.26 142.33 255.01 142.83 257.51C143.33 260.01 153.83 254.51 153.83 254.51C153.83 254.51 155.58 257.76 158.83 256.51C162.08 255.26 159.33 250.26 157.58 250.51C155.83 250.76 153.58 251.26 153.58 251.26Z" fill="white" stroke="#263238" stroke-linecap="round" stroke-linejoin="round"/>
<path d="M213.83 249.26C213.83 249.26 229.08 241 229.08 237C229.08 233 217.58 227.75 214.58 228C211.58 228.25 210.33 229.25 208.08 233C205.83 236.75 187.58 253.75 187.58 253.75C187.58 253.75 175.58 245.25 172.08 245.25C168.58 245.25 160.58 254.5 160.08 258.25C159.58 262 176.58 263.75 183.33 263.75C191.64 263.76 213.83 249.26 213.83 249.26Z" fill="white"/>
<mask id="mask2_120_191" style="mask-type:luminance" maskUnits="userSpaceOnUse" x="160" y="227" width="70" height="37">
<path d="M213.83 249.26C213.83 249.26 229.08 241 229.08 237C229.08 233 217.58 227.75 214.58 228C211.58 228.25 210.33 229.25 208.08 233C205.83 236.75 187.58 253.75 187.58 253.75C187.58 253.75 175.58 245.25 172.08 245.25C168.58 245.25 160.58 254.5 160.08 258.25C159.58 262 176.58 263.75 183.33 263.75C191.64 263.76 213.83 249.26 213.83 249.26Z" fill="white"/>
</mask>
<g mask="url(#mask2_120_191)">
<path d="M229.081 237C229.081 233 217.581 227.75 214.581 228C213.804 228.005 213.036 228.163 212.32 228.465C211.605 228.767 210.956 229.207 210.411 229.76C213.776 229.303 217.198 229.975 220.141 231.67C226.291 235.36 221.061 240.59 217.061 243.35C213.061 246.11 190.631 260.57 185.711 261.18C180.791 261.79 176.141 258.35 173.081 255C170.021 251.65 167.881 249.19 164.191 251.34L163.961 251.51C162.633 253.06 161.504 254.77 160.601 256.6C160.389 257.313 160.235 258.042 160.141 258.78C161.221 262.16 176.911 263.78 183.331 263.78C191.641 263.78 213.831 249.28 213.831 249.28C213.831 249.28 229.081 241 229.081 237Z" fill="#26498D"/>
<path opacity="0.5" d="M229.081 237C229.081 233 217.581 227.75 214.581 228C213.804 228.005 213.036 228.163 212.32 228.465C211.605 228.767 210.956 229.207 210.411 229.76C213.776 229.303 217.198 229.975 220.141 231.67C226.291 235.36 221.061 240.59 217.061 243.35C213.061 246.11 190.631 260.57 185.711 261.18C180.791 261.79 176.141 258.35 173.081 255C170.021 251.65 167.881 249.19 164.191 251.34L163.961 251.51C162.633 253.06 161.504 254.77 160.601 256.6C160.389 257.313 160.235 258.042 160.141 258.78C161.221 262.16 176.911 263.78 183.331 263.78C191.641 263.78 213.831 249.28 213.831 249.28C213.831 249.28 229.081 241 229.081 237Z" fill="white"/>
</g>
<path d="M213.83 249.26C213.83 249.26 229.08 241 229.08 237C229.08 233 217.58 227.75 214.58 228C211.58 228.25 210.33 229.25 208.08 233C205.83 236.75 187.58 253.75 187.58 253.75C187.58 253.75 175.58 245.25 172.08 245.25C168.58 245.25 160.58 254.5 160.08 258.25C159.58 262 176.58 263.75 183.33 263.75C191.64 263.76 213.83 249.26 213.83 249.26Z" stroke="#263238" stroke-linecap="round" stroke-linejoin="round"/>
<path d="M158.08 245.76C158.08 245.76 153.33 248.01 152.83 249.51C152.33 251.01 149.08 259.76 151.33 260.76C153.58 261.76 156.58 251.51 157.58 250.51C158.58 249.51 160.08 247.26 158.08 245.76Z" fill="white" stroke="#263238" stroke-linecap="round" stroke-linejoin="round"/>
<path d="M163.08 245.51C163.08 245.51 160.08 243.01 158.08 245.76C156.08 248.51 154.58 258.26 155.58 260.26C156.58 262.26 159.08 260.26 160.08 258.26C161.08 256.26 163.08 245.51 163.08 245.51Z" fill="white" stroke="#263238" stroke-linecap="round" stroke-linejoin="round"/>
<path d="M173.58 246.76C173.58 246.76 168.83 242.76 166.08 242.51C163.33 242.26 162.33 244.26 162.08 246.51C161.83 248.76 158.33 259.01 159.33 259.51C160.33 260.01 162.33 259.76 163.58 257.51C164.991 254.409 166.243 251.239 167.33 248.01L169.33 249.51" fill="white"/>
<path d="M173.58 246.76C173.58 246.76 168.83 242.76 166.08 242.51C163.33 242.26 162.33 244.26 162.08 246.51C161.83 248.76 158.33 259.01 159.33 259.51C160.33 260.01 162.33 259.76 163.58 257.51C164.991 254.409 166.243 251.239 167.33 248.01L169.33 249.51" stroke="#263238" stroke-linecap="round" stroke-linejoin="round"/>
<path d="M186.579 259C186.579 259 187.579 253 185.829 250.5C184.079 248 179.829 248.25 176.579 244.5C173.329 240.75 170.829 243 171.579 246.25C172.329 249.5 179.579 251.5 179.579 251.5C179.579 251.5 173.579 252 173.079 255C172.579 258 179.249 259.34 179.249 259.34" fill="white"/>
<path d="M186.579 259C186.579 259 187.579 253 185.829 250.5C184.079 248 179.829 248.25 176.579 244.5C173.329 240.75 170.829 243 171.579 246.25C172.329 249.5 179.579 251.5 179.579 251.5C179.579 251.5 173.579 252 173.079 255C172.579 258 179.249 259.34 179.249 259.34" stroke="#263238" stroke-linecap="round" stroke-linejoin="round"/>
<path d="M169.55 237.67C173.121 238.007 176.576 239.112 179.68 240.91" stroke="#263238" stroke-linecap="round" stroke-linejoin="round"/>
<path d="M173.6 236.05C173.6 236.05 178.87 237.67 181.3 239.7" stroke="#263238" stroke-linecap="round" stroke-linejoin="round"/>
<path d="M313.079 180.26C311.551 182.911 310.214 185.668 309.079 188.51C308.079 191.51 310.829 228.51 310.829 228.51C314.147 227.471 317.676 227.299 321.079 228.01C326.329 229.26 336.829 235.01 336.829 235.01C336.829 235.01 337.829 224.26 336.079 216.26C334.329 208.26 331.079 176.01 328.829 172.76C326.579 169.51 327.329 167.76 322.579 169.51" fill="#26498D"/>
<path d="M313.079 180.26C311.551 182.911 310.214 185.668 309.079 188.51C308.079 191.51 310.829 228.51 310.829 228.51C314.147 227.471 317.676 227.299 321.079 228.01C326.329 229.26 336.829 235.01 336.829 235.01C336.829 235.01 337.829 224.26 336.079 216.26C334.329 208.26 331.079 176.01 328.829 172.76C326.579 169.51 327.329 167.76 322.579 169.51" stroke="#263238" stroke-linecap="round" stroke-linejoin="round"/>
<path d="M340.329 228.76C340.329 228.76 333.579 223.01 328.329 221.76C323.079 220.51 313.079 221.76 311.579 222.26C310.079 222.76 309.079 224.51 308.829 227.01C308.579 229.51 306.829 231.26 308.079 232.76C309.329 234.26 316.329 239.01 322.079 240.51C327.829 242.01 336.579 241.51 337.829 237.76C339.079 234.01 341.579 231.51 340.329 228.76Z" fill="white" stroke="#263238" stroke-linecap="round" stroke-linejoin="round"/>
<path d="M206.45 249C206.45 249 198.45 252.45 195.81 253.31C193.17 254.17 192.35 256.55 194.66 257.31C196.97 258.07 207.47 254.15 208.46 254.44C209.45 254.73 220.25 258.18 223.7 258.44C225.973 258.511 228.202 257.806 230.02 256.44C230.02 256.44 213.63 246.1 206.45 249Z" fill="white" stroke="#263238" stroke-linecap="round" stroke-linejoin="round"/>
<path d="M329.59 244.78C330.897 244.343 332.05 243.539 332.913 242.464C333.775 241.389 334.31 240.089 334.454 238.718C334.597 237.347 334.343 235.964 333.722 234.734C333.1 233.504 332.138 232.478 330.95 231.78C329.188 230.782 327.297 230.031 325.33 229.55C319.36 228.13 313.106 228.477 307.33 230.55C304.83 231.55 248.71 248.73 244.68 249.3C240.65 249.87 214.21 240.97 210.18 240.68C204.85 240.3 198.69 254.38 196.96 258.14C196.633 258.736 196.451 259.401 196.43 260.08C196.427 260.419 196.535 260.75 196.737 261.023C196.939 261.295 197.224 261.494 197.55 261.59C198.32 261.72 198.98 261.09 199.46 260.48C203.02 256.05 204.97 250.27 209.46 246.78L203.24 258.78C202.856 259.408 202.611 260.11 202.52 260.84C202.48 261.205 202.555 261.574 202.734 261.895C202.913 262.215 203.188 262.472 203.52 262.63C204.52 262.99 205.52 262.12 206.07 261.26C207.34 259.169 208.472 256.998 209.46 254.76C210.462 252.506 212.163 250.634 214.31 249.42C211.86 253.622 209.875 258.078 208.39 262.71C208.263 263.064 208.27 263.452 208.407 263.801C208.545 264.151 208.806 264.438 209.14 264.61C210.14 265.04 210.84 264.09 211.31 263.28L218 251.58C216.23 255.58 214.64 259.7 213.22 263.85C213.095 264.126 213.057 264.432 213.11 264.73C213.157 264.875 213.236 265.006 213.342 265.116C213.448 265.225 213.577 265.308 213.72 265.36C214.1 265.494 214.511 265.517 214.904 265.427C215.297 265.337 215.656 265.137 215.94 264.85C216.499 264.276 216.938 263.596 217.23 262.85C218.43 260.22 219.28 257.41 220.52 254.85C223.97 255.59 226.85 258.85 230.62 259.39C234.39 259.93 241.25 258.24 241.25 258.24C241.25 258.24 309.85 248.82 318.85 247.07C322.466 246.487 326.05 245.723 329.59 244.78Z" fill="white"/>
<mask id="mask3_120_191" style="mask-type:luminance" maskUnits="userSpaceOnUse" x="196" y="228" width="139" height="38">
<path d="M329.59 244.78C330.897 244.343 332.05 243.539 332.913 242.464C333.775 241.389 334.31 240.089 334.454 238.718C334.597 237.347 334.343 235.964 333.722 234.734C333.1 233.504 332.138 232.478 330.95 231.78C329.188 230.782 327.297 230.031 325.33 229.55C319.36 228.13 313.106 228.477 307.33 230.55C304.83 231.55 248.71 248.73 244.68 249.3C240.65 249.87 214.21 240.97 210.18 240.68C204.85 240.3 198.69 254.38 196.96 258.14C196.633 258.736 196.451 259.401 196.43 260.08C196.427 260.419 196.535 260.75 196.737 261.023C196.939 261.295 197.224 261.494 197.55 261.59C198.32 261.72 198.98 261.09 199.46 260.48C203.02 256.05 204.97 250.27 209.46 246.78L203.24 258.78C202.856 259.408 202.611 260.11 202.52 260.84C202.48 261.205 202.555 261.574 202.734 261.895C202.913 262.215 203.188 262.472 203.52 262.63C204.52 262.99 205.52 262.12 206.07 261.26C207.34 259.169 208.472 256.998 209.46 254.76C210.462 252.506 212.163 250.634 214.31 249.42C211.86 253.622 209.875 258.078 208.39 262.71C208.263 263.064 208.27 263.452 208.407 263.801C208.545 264.151 208.806 264.438 209.14 264.61C210.14 265.04 210.84 264.09 211.31 263.28L218 251.58C216.23 255.58 214.64 259.7 213.22 263.85C213.095 264.126 213.057 264.432 213.11 264.73C213.157 264.875 213.236 265.006 213.342 265.116C213.448 265.225 213.577 265.308 213.72 265.36C214.1 265.494 214.511 265.517 214.904 265.427C215.297 265.337 215.656 265.137 215.94 264.85C216.499 264.276 216.938 263.596 217.23 262.85C218.43 260.22 219.28 257.41 220.52 254.85C223.97 255.59 226.85 258.85 230.62 259.39C234.39 259.93 241.25 258.24 241.25 258.24C241.25 258.24 309.85 248.82 318.85 247.07C322.466 246.487 326.05 245.723 329.59 244.78Z" fill="white"/>
</mask>
<g mask="url(#mask3_120_191)">
<path d="M328.349 235.06C326.809 239.06 286.229 248.9 268.709 251.97C251.189 255.04 241.349 258.43 234.589 255.97C227.829 253.51 221.679 250.13 220.139 252.28C218.889 254.02 216.629 261.03 215.819 264.93L215.919 264.85C216.479 264.276 216.917 263.596 217.209 262.85C218.409 260.22 219.259 257.41 220.499 254.85C223.949 255.59 226.829 258.85 230.599 259.39C234.369 259.93 241.229 258.24 241.229 258.24C241.229 258.24 309.829 248.82 318.829 247.07C322.451 246.508 326.042 245.764 329.589 244.84C330.896 244.403 332.05 243.599 332.913 242.524C333.775 241.449 334.31 240.149 334.453 238.778C334.597 237.407 334.343 236.024 333.721 234.794C333.1 233.564 332.138 232.538 330.949 231.84C329.188 230.842 327.296 230.091 325.329 229.61C325.329 229.61 329.889 231.07 328.349 235.06Z" fill="#26498D"/>
<path opacity="0.5" d="M328.349 235.06C326.809 239.06 286.229 248.9 268.709 251.97C251.189 255.04 241.349 258.43 234.589 255.97C227.829 253.51 221.679 250.13 220.139 252.28C218.889 254.02 216.629 261.03 215.819 264.93L215.919 264.85C216.479 264.276 216.917 263.596 217.209 262.85C218.409 260.22 219.259 257.41 220.499 254.85C223.949 255.59 226.829 258.85 230.599 259.39C234.369 259.93 241.229 258.24 241.229 258.24C241.229 258.24 309.829 248.82 318.829 247.07C322.451 246.508 326.042 245.764 329.589 244.84C330.896 244.403 332.05 243.599 332.913 242.524C333.775 241.449 334.31 240.149 334.453 238.778C334.597 237.407 334.343 236.024 333.721 234.794C333.1 233.564 332.138 232.538 330.949 231.84C329.188 230.842 327.296 230.091 325.329 229.61C325.329 229.61 329.889 231.07 328.349 235.06Z" fill="white"/>
</g>
<path d="M329.59 244.78C330.897 244.343 332.05 243.539 332.913 242.464C333.775 241.389 334.31 240.089 334.454 238.718C334.597 237.347 334.343 235.964 333.722 234.734C333.1 233.504 332.138 232.478 330.95 231.78C329.188 230.782 327.297 230.031 325.33 229.55C319.36 228.13 313.106 228.477 307.33 230.55C304.83 231.55 248.71 248.73 244.68 249.3C240.65 249.87 214.21 240.97 210.18 240.68C204.85 240.3 198.69 254.38 196.96 258.14C196.633 258.736 196.451 259.401 196.43 260.08C196.427 260.419 196.535 260.75 196.737 261.023C196.939 261.295 197.224 261.494 197.55 261.59C198.32 261.72 198.98 261.09 199.46 260.48C203.02 256.05 204.97 250.27 209.46 246.78L203.24 258.78C202.856 259.408 202.611 260.11 202.52 260.84C202.48 261.205 202.555 261.574 202.734 261.895C202.913 262.215 203.188 262.472 203.52 262.63C204.52 262.99 205.52 262.12 206.07 261.26C207.34 259.169 208.472 256.998 209.46 254.76C210.462 252.506 212.163 250.634 214.31 249.42C211.86 253.622 209.875 258.078 208.39 262.71C208.263 263.064 208.27 263.452 208.407 263.801C208.545 264.151 208.806 264.438 209.14 264.61C210.14 265.04 210.84 264.09 211.31 263.28L218 251.58C216.23 255.58 214.64 259.7 213.22 263.85C213.095 264.126 213.057 264.432 213.11 264.73C213.157 264.875 213.236 265.006 213.342 265.116C213.448 265.225 213.577 265.308 213.72 265.36C214.1 265.494 214.511 265.517 214.904 265.427C215.297 265.337 215.656 265.137 215.94 264.85C216.499 264.276 216.938 263.596 217.23 262.85C218.43 260.22 219.28 257.41 220.52 254.85C223.97 255.59 226.85 258.85 230.62 259.39C234.39 259.93 241.25 258.24 241.25 258.24C241.25 258.24 309.85 248.82 318.85 247.07C322.466 246.487 326.05 245.723 329.59 244.78Z" stroke="#263238" stroke-linecap="round" stroke-linejoin="round"/>
<path d="M102.7 267.44H147.07V265.37H102.7V267.44Z" fill="white" stroke="#263238" stroke-linecap="round" stroke-linejoin="round"/>
<path d="M68.5797 253.78H164.22V192.1H68.5797L68.5797 253.78Z" fill="white" stroke="#263238" stroke-linecap="round" stroke-linejoin="round"/>
<path d="M68.58 253.78H159V192.1H68.58L68.58 253.78Z" fill="#263238" stroke="#263238" stroke-linecap="round" stroke-linejoin="round"/>
<path d="M101.671 268.38H122.601V220.76H101.671V268.38Z" fill="white" stroke="#263238" stroke-linecap="round" stroke-linejoin="round"/>
<path d="M99.7399 268.38H120.67V220.76H99.7399V268.38Z" fill="#263238" stroke="#263238" stroke-linecap="round" stroke-linejoin="round"/>
<path d="M122.06 221.33H99.25V253.93" stroke="white" stroke-linecap="round" stroke-linejoin="round"/>
<path d="M164.88 267.62H228.95V264.27H164.88V267.62Z" fill="white" stroke="#263238" stroke-linecap="round" stroke-linejoin="round"/>
<path d="M132.221 267.62H212.391V264.27H132.221V267.62Z" fill="white" stroke="#263238" stroke-linecap="round" stroke-linejoin="round"/>
<path d="M286.561 267.65H319.211L318.701 263.03L286.561 264.81V267.65Z" fill="white" stroke="#263238" stroke-linecap="round" stroke-linejoin="round"/>
<path d="M263.67 267.89H296.32L295.81 263.27L263.67 265.05V267.89Z" fill="white" stroke="#263238" stroke-linecap="round" stroke-linejoin="round"/>
<path d="M348.07 264.81C348.07 264.81 340.38 265.2 337.69 265.2C335 265.2 323.08 262.51 318.08 263.27C314.899 263.874 311.923 265.274 309.43 267.34C306.937 265.274 303.961 263.874 300.78 263.27C295.78 262.51 283.86 265.2 281.17 265.2C278.48 265.2 270.79 264.81 270.79 264.81V267.89L309.43 267.51L348.07 267.89V264.81Z" fill="white" stroke="#263238" stroke-linecap="round" stroke-linejoin="round"/>
<path d="M270.791 264.81H238.141V267.65H270.791V264.81Z" fill="white" stroke="#263238" stroke-linecap="round" stroke-linejoin="round"/>
<path d="M45.9105 275.15L382.021 275.15V267.59L45.9105 267.59V275.15Z" fill="white" stroke="#263238" stroke-linecap="round" stroke-linejoin="round"/>
<path d="M17.9506 275.15L261.391 275.15V267.59L17.9506 267.59V275.15Z" fill="#263238" stroke="#263238" stroke-linecap="round" stroke-linejoin="round"/>
<path d="M54.552 304.912L52.056 304.464V302.224H69.56L69.976 307.888H67.448L66.328 304.656L60.024 304.336V312.656L63.928 312.56L64.504 309.936H66.712V317.968H64.504L63.96 315.184L60.024 315.088V323.792L67.032 323.344L68.984 319.216L71.704 319.984L70.936 326H52.088V323.888L54.552 323.568V304.912ZM75.6473 304.88L73.1513 304.464V302.224H81.1833L90.0153 315.856L91.8073 319.696V304.88L89.0873 304.464V302.224H97.2793V304.464L94.8473 304.88V326H90.1433L80.7673 311.376L78.6553 307.152V323.536L82.0473 323.888V326H73.1513V323.888L75.6473 323.536V304.88ZM117.503 326.352C113.812 326.352 111.007 325.285 109.087 323.152C107.167 320.997 106.207 318.053 106.207 314.32C106.207 311.803 106.719 309.616 107.743 307.76C108.767 305.883 110.175 304.453 111.967 303.472C113.759 302.469 115.786 301.968 118.047 301.968C118.943 301.968 119.807 302.021 120.639 302.128C121.471 302.213 122.474 302.341 123.647 302.512C124.564 302.661 125.194 302.747 125.535 302.768L125.151 309.904H121.727L120.639 305.008C120.17 304.496 119.188 304.24 117.695 304.24C116.052 304.24 114.751 305.061 113.791 306.704C112.852 308.325 112.383 310.715 112.383 313.872C112.383 316.944 112.842 319.408 113.759 321.264C114.698 323.12 116.052 324.048 117.823 324.048C118.698 324.048 119.359 323.963 119.807 323.792C120.276 323.621 120.671 323.376 120.991 323.056L122.431 319.632L125.567 319.92L124.991 325.136C124.372 325.179 123.615 325.339 122.719 325.616C121.866 325.851 121.055 326.032 120.287 326.16C119.54 326.288 118.612 326.352 117.503 326.352ZM137.987 326.352C134.403 326.352 131.747 325.275 130.019 323.12C128.291 320.944 127.427 317.957 127.427 314.16C127.427 311.707 127.875 309.563 128.771 307.728C129.688 305.872 130.968 304.443 132.611 303.44C134.253 302.437 136.173 301.936 138.371 301.936C142.04 301.936 144.739 302.96 146.467 305.008C148.216 307.035 149.091 309.936 149.091 313.712C149.091 316.208 148.632 318.416 147.715 320.336C146.797 322.235 145.496 323.717 143.811 324.784C142.147 325.829 140.205 326.352 137.987 326.352ZM138.275 304.048C136.739 304.048 135.544 304.891 134.691 306.576C133.859 308.261 133.443 310.779 133.443 314.128C133.443 317.541 133.859 320.08 134.691 321.744C135.523 323.387 136.707 324.208 138.243 324.208C139.757 324.208 140.931 323.312 141.763 321.52C142.616 319.707 143.043 317.115 143.043 313.744C143.043 310.331 142.637 307.867 141.827 306.352C141.016 304.816 139.832 304.048 138.275 304.048ZM153.585 304.88L151.089 304.464V302.224H159.121L167.953 315.856L169.745 319.696V304.88L167.025 304.464V302.224H175.217V304.464L172.785 304.88V326H168.081L158.705 311.376L156.593 307.152V323.536L159.985 323.888V326H151.089V323.888L153.585 323.536V304.88ZM185.351 326.352C184.177 326.352 183.089 326.256 182.087 326.064C181.105 325.872 180.071 325.616 178.983 325.296C178.279 325.083 177.767 324.965 177.447 324.944L177.735 318.96H180.711L181.511 323.056C181.745 323.333 182.172 323.579 182.791 323.792C183.431 324.005 184.188 324.112 185.063 324.112C186.364 324.112 187.335 323.824 187.975 323.248C188.636 322.672 188.967 321.883 188.967 320.88C188.967 320.176 188.753 319.568 188.327 319.056C187.921 318.523 187.345 318.043 186.599 317.616C185.873 317.168 184.871 316.656 183.591 316.08C181.905 315.312 180.476 314.341 179.303 313.168C178.151 311.973 177.575 310.405 177.575 308.464C177.575 307.269 177.884 306.181 178.503 305.2C179.121 304.219 180.06 303.429 181.319 302.832C182.577 302.235 184.145 301.936 186.023 301.936C187.153 301.936 188.135 302.011 188.967 302.16C189.82 302.309 190.727 302.512 191.687 302.768C192.199 302.939 192.593 303.035 192.871 303.056L192.679 308.752H189.767L189.031 304.816C188.881 304.624 188.54 304.453 188.007 304.304C187.495 304.133 186.919 304.048 186.279 304.048C185.105 304.048 184.22 304.325 183.623 304.88C183.047 305.435 182.759 306.149 182.759 307.024C182.759 307.792 183.004 308.464 183.495 309.04C183.985 309.616 184.572 310.107 185.255 310.512C185.959 310.896 187.025 311.44 188.455 312.144C189.585 312.699 190.567 313.264 191.399 313.84C192.252 314.395 192.977 315.12 193.575 316.016C194.172 316.912 194.471 317.957 194.471 319.152C194.471 320.325 194.183 321.456 193.607 322.544C193.052 323.632 192.092 324.539 190.727 325.264C189.361 325.989 187.569 326.352 185.351 326.352ZM204.083 304.592L200.083 304.752L198.739 311.888H195.731L196.243 302.224H217.331L217.747 311.888H214.899L213.491 304.752L209.619 304.592V323.536L214.067 323.888V326H200.019V323.888L204.083 323.536V304.592ZM219.494 323.888L221.958 323.568V304.88L219.622 304.432V302.224H224.55C224.956 302.224 225.393 302.213 225.862 302.192C226.353 302.171 226.726 302.149 226.982 302.128C228.134 302.043 229.116 302 229.926 302C232.209 302 234.022 302.224 235.366 302.672C236.71 303.099 237.681 303.781 238.278 304.72C238.897 305.637 239.206 306.853 239.206 308.368C239.206 309.819 238.822 311.173 238.054 312.432C237.286 313.691 236.156 314.555 234.662 315.024C235.644 315.387 236.465 316.069 237.126 317.072C237.809 318.053 238.513 319.312 239.238 320.848C239.665 321.744 240.006 322.416 240.262 322.864C240.518 323.291 240.785 323.536 241.062 323.6L241.99 323.888V326H235.91C235.59 326 235.26 325.659 234.918 324.976C234.577 324.293 234.14 323.227 233.606 321.776C232.945 320.005 232.369 318.64 231.878 317.68C231.409 316.699 230.886 316.101 230.31 315.888H227.43V323.568L230.278 323.888V326H219.494V323.888ZM229.894 313.808C231.004 313.808 231.868 313.381 232.486 312.528C233.105 311.653 233.414 310.341 233.414 308.592C233.414 307.056 233.105 305.936 232.486 305.232C231.889 304.507 230.876 304.144 229.446 304.144C228.678 304.144 228.006 304.197 227.43 304.304V313.712C227.708 313.776 228.166 313.808 228.806 313.808C229.446 313.808 229.809 313.808 229.894 313.808ZM254.197 326.256C250.89 326.256 248.415 325.456 246.773 323.856C245.13 322.256 244.309 319.749 244.309 316.336V304.912L242.325 304.464V302.224H252.661V304.464L249.973 304.944V316.784C249.973 321.605 251.647 324.016 254.997 324.016C256.661 324.016 257.877 323.387 258.645 322.128C259.434 320.848 259.829 319.088 259.829 316.848V304.912L257.077 304.464V302.224H265.397V304.464L263.285 304.912V316.56C263.285 319.888 262.463 322.341 260.821 323.92C259.199 325.477 256.991 326.256 254.197 326.256ZM277.784 326.352C274.094 326.352 271.288 325.285 269.368 323.152C267.448 320.997 266.488 318.053 266.488 314.32C266.488 311.803 267 309.616 268.024 307.76C269.048 305.883 270.456 304.453 272.248 303.472C274.04 302.469 276.067 301.968 278.328 301.968C279.224 301.968 280.088 302.021 280.92 302.128C281.752 302.213 282.755 302.341 283.928 302.512C284.846 302.661 285.475 302.747 285.816 302.768L285.432 309.904H282.008L280.92 305.008C280.451 304.496 279.47 304.24 277.976 304.24C276.334 304.24 275.032 305.061 274.072 306.704C273.134 308.325 272.664 310.715 272.664 313.872C272.664 316.944 273.123 319.408 274.04 321.264C274.979 323.12 276.334 324.048 278.104 324.048C278.979 324.048 279.64 323.963 280.088 323.792C280.558 323.621 280.952 323.376 281.272 323.056L282.712 319.632L285.848 319.92L285.272 325.136C284.654 325.179 283.896 325.339 283 325.616C282.147 325.851 281.336 326.032 280.568 326.16C279.822 326.288 278.894 326.352 277.784 326.352ZM298.972 326.352C295.281 326.352 292.476 325.285 290.556 323.152C288.636 320.997 287.676 318.053 287.676 314.32C287.676 311.803 288.188 309.616 289.212 307.76C290.236 305.883 291.644 304.453 293.436 303.472C295.228 302.469 297.254 301.968 299.516 301.968C300.412 301.968 301.276 302.021 302.108 302.128C302.94 302.213 303.942 302.341 305.116 302.512C306.033 302.661 306.662 302.747 307.004 302.768L306.62 309.904H303.196L302.108 305.008C301.638 304.496 300.657 304.24 299.164 304.24C297.521 304.24 296.22 305.061 295.26 306.704C294.321 308.325 293.852 310.715 293.852 313.872C293.852 316.944 294.31 319.408 295.228 321.264C296.166 323.12 297.521 324.048 299.292 324.048C300.166 324.048 300.828 323.963 301.276 323.792C301.745 323.621 302.14 323.376 302.46 323.056L303.9 319.632L307.036 319.92L306.46 325.136C305.841 325.179 305.084 325.339 304.188 325.616C303.334 325.851 302.524 326.032 301.756 326.16C301.009 326.288 300.081 326.352 298.972 326.352ZM311.935 304.912L309.311 304.464V302.224H320.095V304.464L317.407 304.912V323.568L320.095 323.92V326H309.343V323.888L311.935 323.536V304.912ZM332.799 326.352C329.215 326.352 326.559 325.275 324.831 323.12C323.103 320.944 322.239 317.957 322.239 314.16C322.239 311.707 322.687 309.563 323.583 307.728C324.5 305.872 325.78 304.443 327.423 303.44C329.066 302.437 330.986 301.936 333.183 301.936C336.852 301.936 339.551 302.96 341.279 305.008C343.028 307.035 343.903 309.936 343.903 313.712C343.903 316.208 343.444 318.416 342.527 320.336C341.61 322.235 340.308 323.717 338.623 324.784C336.959 325.829 335.018 326.352 332.799 326.352ZM333.087 304.048C331.551 304.048 330.356 304.891 329.503 306.576C328.671 308.261 328.255 310.779 328.255 314.128C328.255 317.541 328.671 320.08 329.503 321.744C330.335 323.387 331.519 324.208 333.055 324.208C334.57 324.208 335.743 323.312 336.575 321.52C337.428 319.707 337.855 317.115 337.855 313.744C337.855 310.331 337.45 307.867 336.639 306.352C335.828 304.816 334.644 304.048 333.087 304.048ZM330.527 299.248L334.655 294.576L338.239 296.784C337.45 297.659 336.522 298.459 335.455 299.184C334.388 299.909 333.503 300.4 332.799 300.656L330.527 299.248ZM348.397 304.88L345.901 304.464V302.224H353.933L362.765 315.856L364.557 319.696V304.88L361.837 304.464V302.224H370.029V304.464L367.597 304.88V326H362.893L353.517 311.376L351.405 307.152V323.536L354.797 323.888V326H345.901V323.888L348.397 323.536V304.88Z" fill="#26498D"/>
</svg>
